<?xml version="1.0" encoding="UTF-8"?>
<svg id="Layer_2" data-name="Layer 2" xmlns="http://www.w3.org/2000/svg" viewBox="0 0 310.8 294.36">
  <defs>
    <style>
      .cls-1 {
        fill: #e1b660;
      }

      .cls-2 {
        fill: #aaabae;
      }

      .cls-3 {
        fill: #2c2d6c;
      }
    </style>
  </defs>
  <g id="Layer_1-2" data-name="Layer 1">
    <g>
      <g>
        <path class="cls-1" d="M293.56,254.78v-39.35c0-.1-.51-1.18-.64-1.36-1.32-1.94-4.99-1.86-7.11-2.01v-2h17.24v2c-2.02.15-5.36.18-6.61,2.01-.13.19-.64,1.26-.64,1.36v48.84l-1.45-.06-35.53-47.16v40.85c0,.1.53,1.66.64,1.86,1.22,2.17,4.95,2.04,7.1,2.27v2h-16.87l-.34-.41-.04-1.59c3.94-.27,6.77-.3,7.21-4.9-.6-12.89.9-26.67.04-39.45-.34-5.06-2.64-5.38-7.26-5.61v-2h10.12l34.1,44.72Z"/>
        <path class="cls-1" d="M215.81,208.89c32.17-2.85,34.61,50.57,7.3,55.77-35.12,6.68-37.81-53.07-7.3-55.77ZM215.3,211.13c-20.9,2.62-21.72,54.35,4.93,51.9,22.56-2.08,22.66-55.36-4.93-51.9Z"/>
        <path class="cls-1" d="M56.46,264.03v-1.99c4.24-.04,5.49-1.81,7.04-5.34l16.47-45.99,4.34-1.91,18.82,48.89c1.56,3.34,3.4,4.08,7.03,4.34v1.99s-18.85,0-18.85,0l-.34-.41-.04-1.59c4.61-.53,8.54.56,6.68-5.56-1.21-3.99-3.37-8.02-4.66-12.03l-.39-.17-22,.26c-1.16,3.71-3.26,7.57-4.18,11.31-1.51,6.13,1.48,5.75,6.56,6.19v2h-16.49ZM91.94,242.04l-10.25-27.73-10.24,27.73h20.49Z"/>
        <path class="cls-1" d="M18.99,210.06v2c-.42.42-8.04-.77-6.98,2.6l15.1,41.87,14.84-41.38c.48-3.43-4.72-2.89-6.98-3.09v-2h16.49v2c-4.16.09-5.63.51-7.29,4.33l-17.62,48.58c-1.4,1.22-1.84-.84-2.26-1.88-6.31-15.61-11.07-32.24-17.26-47.95-1.26-2.72-4.38-2.92-7.04-3.08v-2h18.99Z"/>
        <path class="cls-1" d="M135.41,210.06v2c-2.74.34-7.22-.28-7.72,3.39l.15,43.53c.54,2.42,2.83,2.83,4.98,3.01,8.76.75,16.13-.23,22.07-7.1,1.2-1.39,1.99-2.99,3.04-4.45.59-.83,1.94.28,1.61,1.09l-5.52,12.48h-38.35l.03-1.97c2.97-.39,7.01-.36,6.98-4.39l-.03-42.21c-.47-3.47-4.31-3.11-6.97-3.39v-2h19.74Z"/>
        <path class="cls-1" d="M186.88,210.06v2c-3.08.24-7.55-.02-7.76,4.11l.03,42.47c.89,3.45,4.94,2.95,7.71,3.4l-.09,1.75-.75.25-19.39-.12-.22-1.88c2.78-.45,6.82.05,7.71-3.4l.03-42.72c-.38-3.94-4.82-3.55-7.76-3.86v-2h20.49Z"/>
      </g>
      <g>
        <g>
          <path class="cls-1" d="M287.56,290.01v-13.74l-2.5-.5v-.75h6v.75c-.67-.16-2.5.38-2.5,1.13v17.11l-.76-.17-11.98-15.82v14.12c0,.11.27.54.44.62l2.06.25v1h-6v-1c2.09.16,2.38-.46,2.51-2.36.21-3.13.38-10.03-.03-12.98-.21-1.53-1.01-1.88-2.48-1.9v-.75h3.62l11.62,14.99Z"/>
          <path class="cls-1" d="M181.13,290.01v-12.62c0-1.52-1.53-1.63-2.75-1.62v-.75h6v.75s-2.2.56-2.2.56c-.68,5.82-.12,11.81-.3,17.68l-.99-.63-11.75-15.61v14.37c0,1,1.86.82,2.51.99l-.13.88h-5.87v-1c1.2.09,2.27-.04,2.48-1.39-.28-4.42.42-9.39.03-13.74-.14-1.59-.88-2.22-2.51-2.11v-.75h3.62l11.12,14.61.74.38Z"/>
          <path class="cls-1" d="M308.55,294.01c-1.37.23-1.3-.3-1.88-1.25-5.59,3.44-11.8,1.14-13.05-5.43-1.01-5.34,1.07-12.2,7.31-12.8,2.45-.24,4.3.96,6.6,0l1.77,4.99c-.63.13-.63-.08-.96-.41-1.56-1.55-2.15-2.78-4.53-3.46-8.76-2.51-11.21,12.71-4.99,16.98,2.47,1.7,7.15.75,7.87-2.34.24-1.02.4-3.3-.7-3.83-.89-.43-2.51.02-2.19-1.19h7v.73c-.62.21-2.25.32-2.25,1.14v6.87Z"/>
          <path class="cls-1" d="M153.34,274.58c12.22-1.7,12.68,18.44,2.91,19.64-12.58,1.55-12.53-18.3-2.91-19.64ZM154.35,275.33c-8.1.44-8.02,18.7.68,18.19,8.44-.49,8.04-18.67-.68-18.19Z"/>
          <path class="cls-1" d="M210.61,275.02v.75c-.85-.02-2.29.08-2.49,1.13.34,3.82-.49,8.51.02,12.21.73,5.27,10.19,5.97,10.94-.26.45-3.72-.27-8.16.02-11.96-.2-1.05-1.64-1.15-2.49-1.13v-.75h6v.75c-.85-.02-2.29.08-2.49,1.13-.71,7.31,3.22,18.26-8.14,17.37-8.56-.68-5.19-11.66-5.87-17.37-.2-1.05-1.64-1.15-2.49-1.13v-.75h7Z"/>
          <path class="cls-1" d="M198.87,274.77l1.5,4.99c-.39.42-2-2.12-2.25-2.37-3.06-3.02-9.63-3.09-8.73,2.48.71,4.39,11.48,2.6,11.71,9.05.15,4.25-3.76,5.69-7.35,5.33-.99-.1-2.21-.76-3-.76-.84,0-1.33.71-2.12.76l-1.75-5.25c.56-.51,2.33,2.04,2.87,2.5,2.51,2.18,8.21,3.38,9.39-.62,1.96-6.69-9.3-4.7-11.19-9.82-1.11-3.03.93-6.12,4.08-6.53,2.62-.35,4.43,1.1,6.84.23Z"/>
          <path class="cls-1" d="M141.63,274.8l1.53,4.97c-.48.1-.6-.24-.85-.52-1.71-1.88-3.39-3.99-6.27-3.97-8.48.06-8.54,20.05,2.83,17.32,1.87-.45,2.89-2.12,3.99-3.51.24-.3.28-.68.8-.57-.19,2.61-3.29,5.45-5.87,5.75-12.86,1.48-12.54-19.02-2.51-19.75,2.25-.16,4.07.86,6.35.29Z"/>
          <path class="cls-1" d="M247.71,294.01c-1.19-1.62,1.69-.43,2.39-1.61l.19-15.71c-1.32-1.77-4.67-.68-6.07.58-.3.27-1.81,2.61-2.12,2.25l1.22-4.35.39-.17,15.5.26,1.37,4.5c-.58.54-1.46-1.52-1.87-2-1.21-1.42-2.79-2.18-4.73-1.98-.65.07-1.82.39-1.84,1.15l.17,15.46c.66.93,1.77.56,2.76.61v1h-7.37Z"/>
          <path class="cls-1" d="M231.35,275.02v.75c-1.15-.04-2.59,0-2.73,1.39l.1,14.86c.12.24.28.6.49.76.58.41,4.51.31,5.4.12,1.4-.29,2.79-1.5,3.73-2.52.54-.59.57-1.59,1.5-1.37.24.22-1.52,4.59-2.12,5h-13.37v-1c1.68.09,2.35-.16,2.51-1.86.41-4.43-.31-9.49-.03-13.99-.13-1.29-1.38-1.42-2.48-1.39v-.75h7Z"/>
          <path class="cls-1" d="M270.07,275.02v.75c-1.03.03-2.68.1-2.72,1.39.3,4.55-.48,9.78-.04,14.24.17,1.71,1.26,1.66,2.76,1.61v1h-7.25v-1c1.75.08,2.59,0,2.76-1.86.41-4.43-.31-9.49-.04-13.99-.04-1.29-1.7-1.36-2.73-1.39v-.75h7.25Z"/>
        </g>
        <g>
          <path class="cls-1" d="M1.25,294.01v-1c1.42.09,2.29-.14,2.47-1.65.37-3.14.33-10.28.04-13.48-.15-1.68-.9-2.07-2.51-2.11v-.75h10.37c.15,0,1.18.42,1.47.53,8.73,3.32,6.27,18.46-2.47,18.46H1.25ZM6.93,275.83c-1.03.19-1.32.53-1.44,1.56-.52,4.43.35,9.9.06,14.44.44,1.92,5.32,1.28,6.75.61,7.09-3.34,5.44-18.58-5.37-16.61Z"/>
          <path class="cls-1" d="M46.22,294.01c-1.37.23-1.3-.3-1.88-1.25-4.53,3.04-10.68,1.7-12.56-3.68s0-13.9,6.82-14.56c2.38-.23,4.27.9,6.47.03l1.89,4.97c-.66.14-.55-.06-.82-.31-1.49-1.37-2.22-2.89-4.42-3.57-8.81-2.7-11.42,12.55-5.37,16.87,2.21,1.58,5.86,1.19,7.48-1.01.77-1.04,1.19-4.4-.17-5.04-.89-.43-2.51.02-2.19-1.19h7v.73c-.69.06-2.25.6-2.25,1.39v6.62Z"/>
          <path class="cls-1" d="M80.7,294.01v-1c1.09.16,1.66-.3,2.19-1.19l5.86-16.38,1.82-.93,6.58,17.17c.23,1.41,3.37,1.09,2.17,2.32h-6.25l-.13-.88,2.11-.34c.79-.56-1.41-4.77-1.64-5.73h-7.67c-.45,2.25-3.6,6.25.72,6.07l-.13.88h-5.62ZM92.94,286.26l-3.25-9.49c-.63.55-.93,1.79-1.25,2.62-.84,2.2-1.77,4.6-2.24,6.88h6.75Z"/>
          <path class="cls-1" d="M65.71,294.01v-1c1.31.04,2.73.2,2.98-1.39.32-2.03.32-12.46-.05-14.41-.35-1.86-2.31-1.57-3.8-1.17-1.39.37-2.19,1.1-3.13,2.11-.53.57-.57,1.59-1.5,1.37l1.37-4.25,15.5-.26.39.17,1.47,4.6c-.66.62-1.79-1.88-2.12-2.25-1.49-1.74-4.56-2.51-6.34-.83l-.04,15.45c.24,1.32,2.12.59,2.76.99l-.13.88h-7.37Z"/>
          <path class="cls-1" d="M108.43,275.02v.75c-.88-.05-1.82.02-2.52.6l-.17,15.71c.39,1.36,4.74,1.07,5.96.82,2.4-.5,2.91-2.06,4.27-3.48.34-.35.36-.52.96-.41l-2.12,5h-13.37v-1c1.48.09,2.25-.07,2.47-1.65.42-2.99.25-10.05.03-13.23-.13-1.95-.42-2.4-2.51-2.36v-.75h7Z"/>
          <path class="cls-1" d="M57.96,275.02v.75c-.68,0-2.32.13-2.63.75l.11,15.89,2.27.72-.13.88h-6.75l-.13-.88,2.27-.72.11-15.89c-.31-.62-1.95-.75-2.63-.75v-.75h7.5Z"/>
          <path class="cls-1" d="M28.48,275.02v.75c-1.7,0-2.59-.02-2.76,1.86-.41,4.52.32,9.66.02,14.25.23,1.18,1.77,1.21,2.74,1.13.1.28-.11,1-.37,1h-6.87v-1c1.26.07,2.5.09,2.73-1.39-.15-5.07.39-10.28-.29-15.29l-2.44-.56v-.75h7.25Z"/>
        </g>
      </g>
      <g>
        <path class="cls-1" d="M206.36,27.18c1.3-3.05,2.82-6.03,3.76-9.24.47-.33,4.8,2.76,5.57,3.29,49.47,34.4,53.84,100.79,7.92,140.49-40.89,35.35-109.51,35.37-149.04-2.13-.16-.15-.4-.23-.62-.25-.08-.36.04-.4.26-.61.66-.61,3.41-1.79,4.41-2.34.63-.35,1.36-1.03,1.83-1.29,4.55-2.53,8.99-5.01,13.49-7.74,2.86-1.74,5.66-3.44,8.49-5.25.96-.62,1.36-1.03,2-1.5,2.41-1.76,5.64-3.47,8.24-5.25.68-.46,1.48-1.14,2-1.5,32.25-22.29,57.7-45.71,77.95-79.7.42-.7,1.03-1.44,1.5-2.25,1.51-2.61,3.08-6.52,4.5-8.74.42-.66.71-.95,1.25-2,1.61-3.16,3.04-6.26,4.5-9.49.66-1.46,1.34-2.97,2-4.5ZM209.86,29.43c-.74,1.69-1.5,3.63-2.25,5.25-1.41,3.07-3.18,6.47-4.75,9.49-.34.66-.66,1.36-1,2-1.58,2.98-3.29,6.09-5,8.99-.36.61-.85,1.34-1.25,2-19.46,32.23-46.99,58.32-77.7,79.7-.52.36-1.33.79-2,1.25-2.61,1.79-5.76,4.23-8.24,5.75-.62.38-1.39.7-2.25,1.25-2.78,1.77-5.67,3.54-8.49,5.25-4.18,2.53-8.56,5.05-12.74,7.5-.46.27-3.49,1.53-3.49,1.87,12.96,11,29.25,18.58,45.92,22.03,40.19,8.34,85.01-5.32,109.32-39.17,27.47-38.25,17.75-87.26-18.72-115.39-.87-.67-4.03-3.22-4.76-3.48-.46-.17-.3.11-.4.3-.96,1.65-1.43,3.69-2.19,5.43Z"/>
        <path class="cls-1" d="M60.71,132.36c-.1.05-.45,0-.72.14-2.4,1.32-4.79,2.68-7.27,3.85-4.01-7.54-7.44-15.37-9.38-23.73-8.82-38.18,9.57-74.59,41.62-95.04C113.41-.57,149.39-4.62,181.62,5.21l-3.49,9.98-.45.43-.05.82c-1.85,3.19-3.1,6.7-4.75,9.99-.33.66-.66,1.35-1,2-18.82,36.55-48.87,64.55-82.94,86.94-.64.42-1.34.82-2,1.25-2.95,1.91-6.02,3.94-8.99,5.75-5.49,3.32-11.63,6.9-17.24,9.99ZM174.39,13.69c.33-.8,2.42-5.41,2.15-5.76-29.78-8.3-63.14-3.82-89.22,12.75-31.37,19.92-49.22,55.54-39.77,92.75,1.56,6.14,4.04,11.96,6.68,17.68l3.93-1.95c.28-.03.47-.5.56-.55,6.08-3.26,11.84-6.62,17.74-10.24,3.1-1.91,6.19-3.75,9.24-5.75.76-.49,1.5-1,2.25-1.5,29.68-19.73,55-41.99,73.7-72.7.45-.75.82-1.52,1.25-2.25,1.82-3.1,3.34-5.8,5-8.99.35-.67.66-1.33,1-2,1.65-3.27,3.02-6.13,4.5-9.49.28-.63.67-1.22,1-2Z"/>
        <path class="cls-3" d="M77.95,122.37c3.61,9.29,9.24,17.7,15.99,24.98-4.5,2.73-8.94,5.21-13.49,7.74-7.86-6.34-14.44-14.15-19.74-22.73,5.61-3.1,11.75-6.67,17.24-9.99Z"/>
        <path class="cls-3" d="M178.13,15.19c1.72.69,3.85,1.3,5.25,2.5l-5.75-1.25.05-.82.45-.43Z"/>
        <path class="cls-3" d="M174.39,13.69c-.32.78-.72,1.37-1,2-31.66-4.84-65.24,7.27-84.79,32.75-15.26,19.88-20.18,45.94-12.14,69.93-5.9,3.63-11.66,6.98-17.74,10.24-4-7.95-7-16.53-8.2-25.4-6.13-45.12,26-83.41,68.91-92.9,18.31-4.05,37.31-2.84,54.97,3.38Z"/>
        <g>
          <path class="cls-2" d="M199.87,41.18c-.54,1.05-.83,1.33-1.25,2-7.69-6.77-16.78-12.09-26.73-14.74.33-.65.67-1.34,1-2,2.02.18,4.16,1.07,6.06,1.81,7.67,2.99,14.77,7.5,20.92,12.93Z"/>
          <path class="cls-3" d="M206.36,27.18c-.65,1.53-1.34,3.04-2,4.5-4.35-3.77-8.99-7.21-13.92-10.19l-6.82-3.8c7.99,2.05,15.68,5.26,22.73,9.49Z"/>
          <path class="cls-3" d="M209.86,29.43c9.64,6.29,18.08,14.57,24.34,24.26,16.29,25.21,16.3,56.95,0,82.15-16.29,25.2-46.38,39.85-76.3,38.99l10.93-2.68c42-12.35,71.29-52.83,61.4-97.25-3.4-15.29-11.6-29.22-22.61-40.22.75-1.62,1.51-3.56,2.25-5.25Z"/>
          <path class="cls-3" d="M96.94,150.35c14.4,13.63,33.09,21.86,52.84,23.98,1.8.19,3.66.13,5.46.28.32.03,1.53.14,1.65.47-25.3,3.85-52.24-1.75-72.7-17.24,4.18-2.45,8.56-4.97,12.74-7.5Z"/>
          <path class="cls-2" d="M195.62,57.16c.4-.66.89-1.39,1.25-2,16.91,18.92,19.25,47.33,5.85,68.93-2.98,4.81-6.79,9.51-11.23,13.03l-1.35-1.43c2.66-3.03,5.65-5.8,8.07-9.11,15.36-20.97,14.17-49.68-2.6-69.43Z"/>
          <path class="cls-2" d="M117.92,136.86c12.48,9.9,28.71,14.46,44.57,11.72l.36,2.23c-16.55,2.98-34.2-1.87-46.93-12.71.67-.46,1.48-.89,2-1.25Z"/>
          <path class="cls-2" d="M202.87,44.17c10.28,9.82,16.92,23.25,19.49,37.22l-2.5.25c-2.06-13.41-8.84-25.64-17.99-35.47.34-.64.66-1.34,1-2Z"/>
          <path class="cls-2" d="M88.94,115.38c3.43,9.37,8.59,18.01,15.49,25.23-.64.47-1.03.88-2,1.5-1.37-1.94-3.12-3.63-4.6-5.52-4.68-6-8.27-12.82-10.89-19.96.66-.42,1.36-.83,2-1.25Z"/>
          <path class="cls-2" d="M112.68,135.36c-6.07-6.24-11.05-13.49-13.99-21.73l2.48-.48c2.59,7.94,7.67,14.87,13.51,20.72-.52.36-1.32,1.04-2,1.5Z"/>
          <path class="cls-2" d="M107.68,143.86l3.64,3-1.15,1.64c-.82.41-3.7-3.17-4.74-3.39.86-.55,1.63-.87,2.25-1.25Z"/>
          <path class="cls-2" d="M194.12,51.92c-.47.81-1.08,1.55-1.5,2.25l-1.89-2c-.22-.43.77-1.76,1.27-1.75.7,0,1.26,1.52,2.12,1.51Z"/>
          <path class="cls-2" d="M162.89,36.18c-.43.73-.79,1.5-1.25,2.25-24.45-4.01-49.17,9.65-59.25,32.06-1.78,3.97-2.45,7.5-3.72,11.52-.52,1.66-.97,1.68-2.73,1.64,1.53-8.84,5.11-17.24,10.39-24.46,12.89-17.61,34.87-26.65,56.56-23.01Z"/>
          <path class="cls-2" d="M87.94,111.13c-.75.5-1.49,1-2.25,1.5-6.24-22.18-1.04-46.73,13.87-64.2.39.62,1.82.98,1.6,1.82-7.38,8.76-12.63,19.79-14.63,31.11-1.72,9.74-1.54,20.33,1.42,29.78Z"/>
          <path class="cls-2" d="M168.89,25.19c-.34.67-.65,1.33-1,2-2.16-.14-4.26-.72-6.4-.97-11.33-1.3-22.58.17-33.2,4.23-.61.07-1-2.1-.86-2.25,13.15-4.91,27.71-6.3,41.46-3.01Z"/>
          <path class="cls-2" d="M220.59,112.89c-2.35,8.67-6.69,17.06-12.24,24.08-16.52,20.89-43.69,30.89-69.94,25.12l.5-2.25c18.42,3.98,37.95,0,53.29-10.79,12.53-8.81,21.88-21.93,26.18-36.66l2.21.49Z"/>
        </g>
      </g>
    </g>
  </g>
</svg>